<svg width="27" height="36" viewBox="0 0 27 36" fill="none" xmlns="http://www.w3.org/2000/svg">
<path opacity="0.87" d="M0 36V3.37503C0 2.52133 0.316957 1.74166 1.05668 0.922245C1.45813 0.443913 2.36472 3.05176e-05 3.375 3.05176e-05H23.625C25.489 3.05176e-05 27 1.51105 27 3.37503V36L13.5 28.125L0 36Z" fill="#514F4F"/>
<path d="M18.3318 13.8642H14.1872V9.71965C14.1872 9.3417 13.878 9.03247 13.5 9.03247C13.1221 9.03247 12.8128 9.3417 12.8128 9.71965V13.8642H8.66826C8.29031 13.8642 7.98108 14.1735 7.98108 14.5514C7.98108 14.7404 8.05839 14.9122 8.18294 15.0367C8.30749 15.1613 8.47929 15.2386 8.66826 15.2386H12.8128V19.3832C12.8128 19.5721 12.8901 19.7439 13.0147 19.8685C13.1393 19.993 13.311 20.0704 13.5 20.0704C13.878 20.0704 14.1872 19.7611 14.1872 19.3832V15.2386H18.3318C18.7097 15.2386 19.019 14.9294 19.019 14.5514C19.019 14.1735 18.7097 13.8642 18.3318 13.8642Z" fill="white"/>
</svg>
